<svg id="Layer_1" data-name="Layer 1" xmlns="http://www.w3.org/2000/svg" viewBox="0 0 119.0002 49.043">
  <defs><style>.cls-1{fill:#5386e4;}.cls-2{fill:#fff;}</style>
  </defs><title>ico-logoArtboard 1</title><g id="Canvas">
  <g id="ICO_Anatomy_Logo-Final" data-name="ICO Anatomy Logo-Final">
    <g id="g10"><g id="path12"><path id="path0_fill" data-name="path0 fill" class="cls-1" d="M0,18.2976H1.2159V30.7841H0Z"/></g>
      <g id="g14"><g id="g16"><g id="g22"><g id="path24"><path id="path1_fill" data-name="path1 fill" class="cls-1" d="M10.3077,30.9391c-1.7962,0-3.4947-.95-3.4947-2.7728v-6.96a3.2942,3.2942,0,0,1,3.5522-3.1025,4.0657,4.0657,0,0,1,3.05,1.183l-.6757.9886a3.4176,3.4176,0,0,0-2.3364-.9694A2.1461,2.1461,0,0,0,8.107,21.2832v6.7089c0,1.3376,1.5437,1.8227,2.393,1.8227a5.363,5.363,0,0,0,2.7222-.8914l.4251,1.0849A5.7645,5.7645,0,0,1,10.3077,30.9391Z"/></g></g><g id="g26"><g id="path28"><path id="path2_fill" data-name="path2 fill" class="cls-1" d="M24.65,21.0317c0-1.3376-1.5259-1.7837-2.3555-1.7837-.85,0-2.4327.4462-2.4327,1.7837v6.9221c0,1.3376,1.583,1.842,2.4327,1.842.83,0,2.3555-.5044,2.3555-1.842ZM22.2751,30.92c-1.8154,0-3.7061-.9886-3.7061-2.8691V20.9739c0-1.8809,1.8907-2.87,3.7061-2.87,1.7958,0,3.6678.9891,3.6678,2.87V28.051C25.9428,29.9315,24.0708,30.92,22.2751,30.92Z"/></g></g><g id="g30"><g id="path32"><path id="path3_fill" data-name="path3 fill" class="cls-2" d="M35.42,19.83h-.3283l-1.5629,5.9134h3.4554Zm2.8774,10.9546-1.0045-3.82H33.2191l-1.0036,3.82H30.864l3.5335-12.487h1.8136l3.5335,12.487Z"/></g></g><g id="g34"><g id="path36"><path id="path4_fill" data-name="path4 fill" class="cls-2" d="M53.6233,30.7841H52.4846L45.6883,20.1978a3.3325,3.3325,0,0,1,.2319,1.0854v9.501H44.666V18.2976H45.92l6.1014,9.578a3.0228,3.0228,0,0,1,.3666.8919v-10.47h1.2351Z"/></g></g><g id="g38"><g id="path40"><path id="path5_fill" data-name="path5 fill" class="cls-2" d="M63.2923,19.83h-.3278L61.4,25.7429h3.4564Zm2.876,10.9546-1.0027-3.82H61.0916l-1.0045,3.82H58.736l3.5331-12.487H64.084l3.5335,12.487Z"/></g></g><g id="g42"><g id="path44"><path id="path6_fill" data-name="path6 fill" class="cls-2" d="M77.635,19.4806H74.932V30.7841H73.638V19.4806H70.704V18.2784h7.1241Z"/></g></g><g id="g46"><g id="path48"><path id="path7_fill" data-name="path7 fill" class="cls-2" d="M88.0578,21.0317c0-1.3376-1.5245-1.7837-2.3546-1.7837-.85,0-2.4327.4462-2.4327,1.7837v6.9221c0,1.3376,1.583,1.842,2.4327,1.842.83,0,2.3546-.5044,2.3546-1.842ZM85.684,30.92c-1.8154,0-3.707-.9886-3.707-2.8691V20.9739c0-1.8809,1.8916-2.87,3.707-2.87,1.7948,0,3.6678.9891,3.6678,2.87V28.051C89.3518,29.9315,87.4789,30.92,85.684,30.92Z"/></g></g><g id="g50"><g id="path52"><path id="path8_fill" data-name="path8 fill" class="cls-2" d="M105.045,30.7841V22.369a7.9174,7.9174,0,0,1,.1735-1.3188l-3.996,9.6757h-1.2168L95.9319,21.05a8.7952,8.7952,0,0,1,.1548,1.28v8.4537h-1.12L94.948,18.2976h1.1579L100.72,29.0192l4.44-10.7216h1.1584V30.7841Z"/></g></g><g id="g54"><g id="path56"><path id="path9_fill" data-name="path9 fill" class="cls-2" d="M115.795,26.17v4.6143h-1.2543V26.17l-3.2057-7.8722h1.3711l2.3163,6.0885a2.75,2.75,0,0,1,.1548.6007,3.2313,3.2313,0,0,1,.1548-.6007l2.3359-6.0885H119Z"/></g></g></g></g></g></g></g></svg>