<svg id="Layer_1" data-name="Layer 1" xmlns="http://www.w3.org/2000/svg" viewBox="0 0 431.5492 144.0418"><defs><style>.cls-1{fill:#ee4036;}.cls-2{fill:#f2f2f2;}</style></defs><title>beastArtboard 1</title><path class="cls-1" d="M0,98.0416v-45.09H4.41v45.09Z"/><path class="cls-1" d="M37.3817,98.6011c-6.5133,0-12.674-3.4313-12.674-10.0125V63.4558c0-6.7929,6.09-11.2041,12.8826-11.2041,5.11,0,9.17,2.031,11.0618,4.2721l-2.45,3.57a12.4193,12.4193,0,0,0-8.4731-3.5007c-3.6416,0-8.3292,2.309-8.3292,7.1406V87.96c0,4.83,5.5981,6.5813,8.6784,6.5813a19.4924,19.4924,0,0,0,9.8717-3.22l1.5427,3.918A20.9667,20.9667,0,0,1,37.3817,98.6011Z"/><path class="cls-1" d="M80.7785,98.5315c-6.5828,0-13.44-3.57-13.44-10.3617V62.6149c0-6.7914,6.8577-10.3633,13.44-10.3633,6.5133,0,13.3014,3.5719,13.3014,10.3633V88.17C94.08,94.9613,87.2918,98.5315,80.7785,98.5315Zm8.6136-35.708c0-4.83-5.5333-6.4406-8.5424-6.4406-3.08,0-8.8224,1.6106-8.8224,6.4406V87.819c0,4.83,5.742,6.6523,8.8224,6.6523,3.0091,0,8.5424-1.8224,8.5424-6.6523Z"/><path class="cls-2" d="M138.8818,98.0416l-3.6431-13.793H120.4658l-3.6381,13.793h-4.9012l12.8131-45.09h6.578l12.8129,45.09ZM128.4475,58.4852h-1.19L121.59,79.8376h12.53Z"/><path class="cls-2" d="M194.461,98.0416h-4.13L165.6851,59.8143a11.99,11.99,0,0,1,.8408,3.92V98.0416h-4.5485v-45.09h4.5485l22.1269,34.5873a10.8823,10.8823,0,0,1,1.3291,3.22V52.9519h4.4791Z"/><path class="cls-2" d="M239.9584,98.0416l-3.6366-13.793H221.5473l-3.6415,13.793h-4.9012l12.8131-45.09h6.5828l12.8131,45.09Zm-10.43-39.5564H228.34l-5.6724,21.3524h12.5332Z"/><path class="cls-2" d="M281.5409,57.2238h-9.8022V98.0416h-4.6925V57.2238h-10.64V52.8823h25.8346Z"/><path class="cls-2" d="M310.7308,98.5315c-6.5826,0-13.4436-3.57-13.4436-10.3617V62.6149c0-6.7914,6.861-10.3633,13.4436-10.3633,6.51,0,13.3014,3.5719,13.3014,10.3633V88.17C324.0322,94.9613,317.2409,98.5315,310.7308,98.5315Zm8.609-35.708c0-4.83-5.5285-6.4406-8.5395-6.4406-3.08,0-8.8223,1.6106-8.8223,6.4406V87.819c0,4.83,5.742,6.6523,8.8223,6.6523,3.0109,0,8.5395-1.8224,8.5395-6.6523Z"/><path class="cls-2" d="M380.9438,98.0416V67.6552a28.4649,28.4649,0,0,1,.629-4.7621L367.0815,97.8315h-4.4129L347.8959,62.8931a31.6283,31.6283,0,0,1,.561,4.623V98.0416h-4.06l-.07-45.09h4.1993l16.7343,38.7172,16.102-38.7172h4.2009v45.09Z"/><path class="cls-2" d="M419.9263,81.3785V98.0416h-4.5486V81.3785L403.7531,52.9519h4.9724l8.3985,21.9862a9.8449,9.8449,0,0,1,.5628,2.1684,11.6241,11.6241,0,0,1,.561-2.1684l8.47-21.9862h4.8315Z"/></svg>