<svg viewBox="0 0 50 50" version="1.1" xmlns="http://www.w3.org/2000/svg" xmlns:xlink="http://www.w3.org/1999/xlink">
<title>telegram</title>
<desc>Created using Figma</desc>
<g id="Canvas" transform="translate(1672 -966)">
<g id="telegram">
<g id="telegram">
<g id="Vector">
<use xlink:href="#path0_fill" transform="translate(-1672 966)" fill="#0088CC"/>
</g>
</g>
</g>
</g>
<defs>
<path id="path0_fill" d="M 25 0C 11.1925 0 0 11.1925 0 25C 0 38.8075 11.1925 50 25 50C 38.8075 50 50 38.8075 50 25C 50 11.1925 38.8075 0 25 0ZM 32.7 36.8925C 32.7 36.8925 32.075 38.455 30.36 37.705L 24.0075 32.8325L 19.9325 36.5475C 19.9325 36.5475 19.615 36.7875 19.2675 36.6375C 19.2675 36.6375 18.9675 36.61 18.5925 35.4225C 18.2175 34.235 16.315 27.9925 16.315 27.9925L 10 25.8725C 10 25.8725 9.0325 25.53 8.9375 24.7775C 8.845 24.0275 10.03 23.6225 10.03 23.6225L 35.105 13.7875C 35.105 13.7875 37.165 12.8825 37.165 14.3825L 32.7 36.8925Z"/>
</defs>
</svg>
